# Blender v2.78 (sub 0) OBJ File: 'coin.blend'
# www.blender.org
v 0.000000 0.530330 -0.883883
v 0.000000 0.883883 -0.530330
v 0.195090 0.516743 -0.870297
v 0.195090 0.870297 -0.516743
v 0.382683 0.476505 -0.830058
v 0.382683 0.830058 -0.476505
v 0.555570 0.411161 -0.764714
v 0.555570 0.764714 -0.411161
v 0.707107 0.323223 -0.676777
v 0.707107 0.676777 -0.323223
v 0.831470 0.216071 -0.569624
v 0.831470 0.569624 -0.216071
v 0.923880 0.093821 -0.447375
v 0.923880 0.447375 -0.093821
v 0.980785 -0.038827 -0.314726
v 0.980785 0.314726 0.038827
v 1.000000 -0.176777 -0.176777
v 1.000000 0.176777 0.176777
v 0.980785 -0.314726 -0.038827
v 0.980785 0.038827 0.314726
v 0.923880 -0.447375 0.093821
v 0.923880 -0.093821 0.447375
v 0.831470 -0.569624 0.216071
v 0.831470 -0.216071 0.569624
v 0.707107 -0.676777 0.323223
v 0.707107 -0.323223 0.676777
v 0.555570 -0.764715 0.411161
v 0.555570 -0.411161 0.764715
v 0.382683 -0.830058 0.476505
v 0.382683 -0.476505 0.830058
v 0.195090 -0.870297 0.516743
v 0.195090 -0.516743 0.870297
v -0.000000 -0.883883 0.530330
v -0.000000 -0.530330 0.883883
v -0.195091 -0.870297 0.516743
v -0.195091 -0.516743 0.870297
v -0.382684 -0.830058 0.476505
v -0.382684 -0.476505 0.830058
v -0.555571 -0.764714 0.411161
v -0.555571 -0.411161 0.764714
v -0.707107 -0.676776 0.323223
v -0.707107 -0.323223 0.676776
v -0.831470 -0.569624 0.216070
v -0.831470 -0.216070 0.569624
v -0.923880 -0.447374 0.093821
v -0.923880 -0.093821 0.447374
v -0.980785 -0.314726 -0.038828
v -0.980785 0.038828 0.314726
v -1.000000 -0.176776 -0.176777
v -1.000000 0.176777 0.176776
v -0.980785 -0.038826 -0.314727
v -0.980785 0.314727 0.038826
v -0.923879 0.093822 -0.447375
v -0.923879 0.447375 -0.093822
v -0.831469 0.216072 -0.569625
v -0.831469 0.569625 -0.216072
v -0.707106 0.323224 -0.676777
v -0.707106 0.676777 -0.323224
v -0.555569 0.411162 -0.764715
v -0.555569 0.764715 -0.411162
v -0.382682 0.476505 -0.830059
v -0.382682 0.830059 -0.476505
v -0.195089 0.516743 -0.870297
v -0.195089 0.870297 -0.516743
vt 0.5000 0.2018
vt 0.5258 0.1357
vt 0.5000 0.1357
vt 0.5506 0.2018
vt 0.5506 0.1357
vt 0.5734 0.1357
vt 0.5734 0.2018
vt 0.5934 0.1357
vt 0.5934 0.2018
vt 0.5734 0.1357
vt 0.5734 0.2018
vt 0.5506 0.1357
vt 0.5258 0.2018
vt 0.5258 0.1357
vt 0.5000 0.1357
vt 0.4742 0.2018
vt 0.4742 0.1357
vt 0.4494 0.2018
vt 0.4494 0.1357
vt 0.4266 0.2018
vt 0.4266 0.1357
vt 0.4066 0.1357
vt 0.5934 0.2018
vt 0.5734 0.1357
vt 0.5934 0.1357
vt 0.5506 0.2018
vt 0.5506 0.1357
vt 0.5258 0.1357
vt 0.5000 0.2018
vt 0.5000 0.1357
vt 0.4742 0.1357
vt 0.4742 0.2018
vt 0.4494 0.1357
vt 0.4494 0.2018
vt 0.4266 0.1357
vt 0.4266 0.2018
vt 0.4066 0.1357
vt 0.4066 0.2018
vt 0.4266 0.1357
vt 0.4266 0.2018
vt 0.4494 0.1357
vt 0.4494 0.2018
vt 0.4742 0.1357
vt 0.4742 0.2018
vt 0.5000 0.1357
vt 0.5000 0.2018
vt 0.5258 0.1357
vt 0.5258 0.2018
vt 0.5506 0.1357
vt 0.5506 0.2018
vt 0.5734 0.1357
vt 0.5734 0.2018
vt 0.5934 0.1357
vt 0.4066 0.2018
vt 0.4266 0.1357
vt 0.4066 0.1357
vt 0.4266 0.2018
vt 0.4494 0.1357
vt 0.2753 0.3783
vt 0.6499 0.5785
vt 0.0751 0.7528
vt 0.4494 0.2018
vt 0.4742 0.1357
vt 0.4742 0.2018
vt 0.4497 0.9530
vt 0.0751 0.7528
vt 0.2753 0.3783
vt 0.5258 0.2018
vt 0.5506 0.2018
vt 0.5000 0.2018
vt 0.4066 0.2018
vt 0.5734 0.2018
vt 0.5258 0.2018
vt 0.5934 0.2018
vt 0.4497 0.9530
vt 0.3919 0.9645
vt 0.2209 0.9305
vt 0.3331 0.9645
vt 0.2753 0.9530
vt 0.1720 0.8978
vt 0.1304 0.8561
vt 0.0977 0.8072
vt 0.0637 0.6951
vt 0.0637 0.6362
vt 0.0751 0.5785
vt 0.0977 0.5241
vt 0.1304 0.4751
vt 0.1720 0.4335
vt 0.2209 0.4008
vt 0.3331 0.3668
vt 0.5041 0.4008
vt 0.3919 0.3668
vt 0.4497 0.3783
vt 0.5530 0.4335
vt 0.5946 0.4751
vt 0.6273 0.5241
vt 0.6613 0.6362
vt 0.6613 0.6951
vt 0.6499 0.7528
vt 0.6273 0.8072
vt 0.5946 0.8561
vt 0.5530 0.8978
vt 0.5041 0.9305
vt 0.3331 0.3668
vt 0.3919 0.3668
vt 0.4497 0.3783
vt 0.5041 0.4008
vt 0.5530 0.4335
vt 0.5946 0.4751
vt 0.6273 0.5241
vt 0.6499 0.5785
vt 0.6613 0.6362
vt 0.6613 0.6951
vt 0.6499 0.7528
vt 0.6273 0.8072
vt 0.5946 0.8561
vt 0.5530 0.8978
vt 0.5041 0.9305
vt 0.3919 0.9645
vt 0.3331 0.9645
vt 0.2753 0.9530
vt 0.2209 0.9305
vt 0.1720 0.8978
vt 0.1304 0.8561
vt 0.0977 0.8072
vt 0.0637 0.6951
vt 0.0637 0.6362
vt 0.0751 0.5785
vt 0.0977 0.5241
vt 0.1304 0.4751
vt 0.1720 0.4335
vt 0.2209 0.4008
vn 0.0000 0.9995 -0.0298
vn 0.1420 0.0199 -0.9897
vn 0.0000 0.0298 -0.9995
vn 0.2785 0.9604 0.0093
vn 0.2785 -0.0093 -0.9604
vn 0.4044 -0.0569 -0.9128
vn 0.4044 0.9128 0.0569
vn 0.5147 -0.1209 -0.8488
vn 0.5147 0.8488 0.1209
vn 0.6052 -0.1989 -0.7708
vn 0.6052 0.7708 0.1989
vn 0.6725 -0.2879 -0.6818
vn 0.7139 0.5853 0.3844
vn 0.7139 -0.3844 -0.5853
vn 0.7279 -0.4848 -0.4848
vn 0.7139 0.3844 0.5853
vn 0.7139 -0.5853 -0.3844
vn 0.6725 0.2879 0.6818
vn 0.6725 -0.6818 -0.2879
vn 0.6052 0.1989 0.7708
vn 0.6052 -0.7708 -0.1989
vn 0.5147 -0.8488 -0.1209
vn 0.5147 0.1209 0.8488
vn 0.4044 -0.9128 -0.0569
vn 0.2785 0.0093 0.9604
vn 0.2785 -0.9604 -0.0093
vn 0.1420 -0.9897 0.0199
vn 0.0000 -0.0298 0.9995
vn 0.0000 -0.9995 0.0298
vn -0.1420 -0.9897 0.0199
vn -0.1420 -0.0199 0.9897
vn -0.2785 -0.9604 -0.0093
vn -0.2785 0.0093 0.9604
vn -0.4044 -0.9128 -0.0569
vn -0.4044 0.0569 0.9128
vn -0.5147 -0.8488 -0.1209
vn -0.5147 0.1209 0.8488
vn -0.6052 -0.7708 -0.1989
vn -0.6052 0.1989 0.7708
vn -0.6725 -0.6818 -0.2879
vn -0.6725 0.2879 0.6818
vn -0.7139 -0.5853 -0.3844
vn -0.7139 0.3844 0.5853
vn -0.7279 -0.4848 -0.4848
vn -0.7279 0.4848 0.4848
vn -0.7139 -0.3844 -0.5853
vn -0.7139 0.5853 0.3844
vn -0.6725 -0.2879 -0.6818
vn -0.6725 0.6818 0.2879
vn -0.6052 -0.1989 -0.7708
vn -0.6052 0.7708 0.1989
vn -0.5147 -0.1209 -0.8488
vn -0.5147 0.8488 0.1209
vn -0.4044 -0.0569 -0.9128
vn -0.4044 0.9128 0.0569
vn -0.2785 -0.0093 -0.9604
vn -0.2785 0.9604 0.0093
vn -0.1420 0.0199 -0.9897
vn -0.1420 0.9897 -0.0199
vn 0.1420 0.9897 -0.0199
vn 0.6725 0.6818 0.2879
vn 0.7279 0.4848 0.4848
vn 0.4044 0.0569 0.9128
vn 0.1420 -0.0199 0.9897
s 1
f 2/1/1 3/2/2 1/3/3
f 3/2/2 6/4/4 5/5/5
f 6/4/4 7/6/6 5/5/5
f 8/7/7 9/8/8 7/6/6
f 10/9/9 11/10/10 9/8/8
f 12/11/11 13/12/12 11/10/10
f 13/12/12 16/13/13 15/14/14
f 16/13/13 17/15/15 15/14/14
f 17/15/15 20/16/16 19/17/17
f 19/17/17 22/18/18 21/19/19
f 21/19/19 24/20/20 23/21/21
f 24/20/20 25/22/22 23/21/21
f 26/23/23 27/24/24 25/25/22
f 27/24/24 30/26/25 29/27/26
f 30/26/25 31/28/27 29/27/26
f 31/28/27 34/29/28 33/30/29
f 34/29/28 35/31/30 33/30/29
f 36/32/31 37/33/32 35/31/30
f 38/34/33 39/35/34 37/33/32
f 40/36/35 41/37/36 39/35/34
f 42/38/37 43/39/38 41/37/36
f 44/40/39 45/41/40 43/39/38
f 46/42/41 47/43/42 45/41/40
f 48/44/43 49/45/44 47/43/42
f 50/46/45 51/47/46 49/45/44
f 52/48/47 53/49/48 51/47/46
f 54/50/49 55/51/50 53/49/48
f 56/52/51 57/53/52 55/51/50
f 58/54/53 59/55/54 57/56/52
f 60/57/55 61/58/56 59/55/54
f 38/59/33 22/60/18 54/61/49
f 62/62/57 63/63/58 61/58/56
f 64/64/59 1/3/3 63/63/58
f 31/65/27 47/66/42 63/67/58
f 2/1/1 4/68/60 3/2/2
f 3/2/2 4/68/60 6/4/4
f 6/4/4 8/7/7 7/6/6
f 8/7/7 10/9/9 9/8/8
f 10/9/9 12/11/11 11/10/10
f 12/11/11 14/69/61 13/12/12
f 13/12/12 14/69/61 16/13/13
f 16/13/13 18/70/62 17/15/15
f 17/15/15 18/70/62 20/16/16
f 19/17/17 20/16/16 22/18/18
f 21/19/19 22/18/18 24/20/20
f 24/20/20 26/71/23 25/22/22
f 26/23/23 28/72/63 27/24/24
f 27/24/24 28/72/63 30/26/25
f 30/26/25 32/73/64 31/28/27
f 31/28/27 32/73/64 34/29/28
f 34/29/28 36/32/31 35/31/30
f 36/32/31 38/34/33 37/33/32
f 38/34/33 40/36/35 39/35/34
f 40/36/35 42/38/37 41/37/36
f 42/38/37 44/40/39 43/39/38
f 44/40/39 46/42/41 45/41/40
f 46/42/41 48/44/43 47/43/42
f 48/44/43 50/46/45 49/45/44
f 50/46/45 52/48/47 51/47/46
f 52/48/47 54/50/49 53/49/48
f 54/50/49 56/52/51 55/51/50
f 56/52/51 58/74/53 57/53/52
f 58/54/53 60/57/55 59/55/54
f 60/57/55 62/62/57 61/58/56
f 6/75/4 4/76/60 62/77/57
f 2/78/1 64/79/59 62/77/57
f 62/77/57 60/80/55 58/81/53
f 58/81/53 56/82/51 54/61/49
f 54/61/49 52/83/47 50/84/45
f 50/84/45 48/85/43 54/61/49
f 46/86/41 44/87/39 38/59/33
f 42/88/37 40/89/35 38/59/33
f 38/59/33 36/90/31 30/91/25
f 34/92/28 32/93/64 30/91/25
f 30/91/25 28/94/63 26/95/23
f 26/95/23 24/96/20 22/60/18
f 22/60/18 20/97/16 18/98/62
f 18/98/62 16/99/13 22/60/18
f 14/100/61 12/101/11 10/102/9
f 10/102/9 8/103/7 6/75/4
f 4/76/60 2/78/1 62/77/57
f 62/77/57 58/81/53 6/75/4
f 54/61/49 48/85/43 46/86/41
f 44/87/39 42/88/37 38/59/33
f 36/90/31 34/92/28 30/91/25
f 30/91/25 26/95/23 22/60/18
f 22/60/18 16/99/13 14/100/61
f 14/100/61 10/102/9 22/60/18
f 6/75/4 58/81/53 54/61/49
f 54/61/49 46/86/41 38/59/33
f 38/59/33 30/91/25 22/60/18
f 22/60/18 10/102/9 6/75/4
f 6/75/4 54/61/49 22/60/18
f 62/62/57 64/64/59 63/63/58
f 64/64/59 2/1/1 1/3/3
f 63/67/58 1/104/3 3/105/2
f 3/105/2 5/106/5 7/107/6
f 7/107/6 9/108/8 11/109/10
f 11/109/10 13/110/12 7/107/6
f 15/111/14 17/112/15 19/113/17
f 19/113/17 21/114/19 15/111/14
f 23/115/21 25/116/22 31/65/27
f 27/117/24 29/118/26 31/65/27
f 31/65/27 33/119/29 35/120/30
f 35/120/30 37/121/32 31/65/27
f 39/122/34 41/123/36 43/124/38
f 43/124/38 45/125/40 47/66/42
f 47/66/42 49/126/44 51/127/46
f 51/127/46 53/128/48 55/129/50
f 55/129/50 57/130/52 63/67/58
f 59/131/54 61/132/56 63/67/58
f 63/67/58 3/105/2 7/107/6
f 7/107/6 13/110/12 15/111/14
f 15/111/14 21/114/19 23/115/21
f 25/116/22 27/117/24 31/65/27
f 31/65/27 37/121/32 39/122/34
f 39/122/34 43/124/38 47/66/42
f 47/66/42 51/127/46 63/67/58
f 57/130/52 59/131/54 63/67/58
f 63/67/58 7/107/6 31/65/27
f 15/111/14 23/115/21 31/65/27
f 31/65/27 39/122/34 47/66/42
f 51/127/46 55/129/50 63/67/58
f 7/107/6 15/111/14 31/65/27
